<svg width="21" height="18" viewBox="0 0 21 18" fill="none" xmlns="http://www.w3.org/2000/svg">
<path d="M0.617676 15.2307H20.3824" stroke="#16A34A" stroke-width="0.6" stroke-linecap="round" stroke-linejoin="round"/>
<path d="M0.617676 16.6154H20.3824" stroke="#16A34A" stroke-width="0.6" stroke-linecap="round" stroke-linejoin="round"/>
<path d="M4.94141 15.2307V7.61536H11.1179V15.2307" stroke="#16A34A" stroke-width="0.6" stroke-linejoin="round"/>
<path d="M6.17627 7.61541V1.38464H12.9704V15.2308" stroke="#16A34A" stroke-width="0.6" stroke-linejoin="round"/>
<path d="M6.79395 2.76929H7.41159" stroke="#16A34A" stroke-width="0.6" stroke-linejoin="round"/>
<path d="M6.79395 4.15381H7.41159" stroke="#16A34A" stroke-width="0.6" stroke-linejoin="round"/>
<path d="M6.79395 5.53845H7.41159" stroke="#16A34A" stroke-width="0.6" stroke-linejoin="round"/>
<path d="M5.55859 9.69226H6.17624" stroke="#16A34A" stroke-width="0.6" stroke-linejoin="round"/>
<path d="M5.55859 11.0769H6.17624" stroke="#16A34A" stroke-width="0.6" stroke-linejoin="round"/>
<path d="M5.55859 12.4615H6.17624" stroke="#16A34A" stroke-width="0.6" stroke-linejoin="round"/>
<path d="M8.0293 2.76929H8.64694" stroke="#16A34A" stroke-width="0.6" stroke-linejoin="round"/>
<path d="M8.0293 4.15381H8.64694" stroke="#16A34A" stroke-width="0.6" stroke-linejoin="round"/>
<path d="M8.0293 5.53845H8.64694" stroke="#16A34A" stroke-width="0.6" stroke-linejoin="round"/>
<path d="M8.0293 9.69226H8.64694" stroke="#16A34A" stroke-width="0.6" stroke-linejoin="round"/>
<path d="M6.79395 9.69226H7.41159" stroke="#16A34A" stroke-width="0.6" stroke-linejoin="round"/>
<path d="M8.0293 11.0769H8.64694" stroke="#16A34A" stroke-width="0.6" stroke-linejoin="round"/>
<path d="M6.79395 11.0769H7.41159" stroke="#16A34A" stroke-width="0.6" stroke-linejoin="round"/>
<path d="M8.0293 12.4615H8.64694" stroke="#16A34A" stroke-width="0.6" stroke-linejoin="round"/>
<path d="M6.79395 12.4615H7.41159" stroke="#16A34A" stroke-width="0.6" stroke-linejoin="round"/>
<path d="M9.26465 2.76929H9.8823" stroke="#16A34A" stroke-width="0.6" stroke-linejoin="round"/>
<path d="M9.26465 4.15381H9.8823" stroke="#16A34A" stroke-width="0.6" stroke-linejoin="round"/>
<path d="M9.26465 5.53845H9.8823" stroke="#16A34A" stroke-width="0.6" stroke-linejoin="round"/>
<path d="M9.26465 9.69226H9.8823" stroke="#16A34A" stroke-width="0.6" stroke-linejoin="round"/>
<path d="M9.26465 11.0769H9.8823" stroke="#16A34A" stroke-width="0.6" stroke-linejoin="round"/>
<path d="M9.26465 12.4615H9.8823" stroke="#16A34A" stroke-width="0.6" stroke-linejoin="round"/>
<path d="M10.5 2.76929H11.1176" stroke="#16A34A" stroke-width="0.6" stroke-linejoin="round"/>
<path d="M10.5 4.15381H11.1176" stroke="#16A34A" stroke-width="0.6" stroke-linejoin="round"/>
<path d="M10.5 5.53845H11.1176" stroke="#16A34A" stroke-width="0.6" stroke-linejoin="round"/>
<path d="M11.7354 2.76929H12.353" stroke="#16A34A" stroke-width="0.6" stroke-linejoin="round"/>
<path d="M11.7354 4.15381H12.353" stroke="#16A34A" stroke-width="0.6" stroke-linejoin="round"/>
<path d="M11.7354 5.53845H12.353" stroke="#16A34A" stroke-width="0.6" stroke-linejoin="round"/>
<path d="M16.0586 15.2308V4.84619" stroke="#16A34A" stroke-width="0.6" stroke-linejoin="round"/>
<path d="M17.9115 6.23073H16.0586C16.0586 5.53842 16.3057 4.15381 17.2939 4.15381H19.1468C19.1468 5.2615 18.3233 5.99996 17.9115 6.23073Z" stroke="#16A34A" stroke-width="0.6" stroke-linejoin="round"/>
<path d="M18.5292 10.3847H16.6763C16.6763 9.69235 16.9233 8.30774 17.9116 8.30774H19.7645C19.7645 9.41543 18.9409 10.1539 18.5292 10.3847Z" stroke="#16A34A" stroke-width="0.6" stroke-linejoin="round"/>
<path d="M14.206 8.30764H16.0589C16.0589 7.61533 15.4413 6.23071 14.8236 6.23071H12.9707C12.9707 7.89225 13.7943 8.30764 14.206 8.30764Z" stroke="#16A34A" stroke-width="0.6" stroke-linejoin="round"/>
<path d="M14.206 4.84621H16.0589C15.5648 3.18467 14.6177 2.76929 14.206 2.76929H12.9707C12.9707 4.43083 13.7943 4.84621 14.206 4.84621Z" stroke="#16A34A" stroke-width="0.6" stroke-linejoin="round"/>
<path d="M3.08831 6.50765C3.90699 6.50765 4.57066 5.76375 4.57066 4.84611C4.57066 3.92847 3.90699 3.18457 3.08831 3.18457C2.26963 3.18457 1.60596 3.92847 1.60596 4.84611C1.60596 5.76375 2.26963 6.50765 3.08831 6.50765Z" stroke="#16A34A" stroke-width="0.6"/>
<path d="M3.9118 13.8462H1.85297C1.57846 13.8462 0.617676 13.8462 0.617676 12.1847V10.5231C0.617676 9.78467 0.947088 8.30774 2.26473 8.30774H4.32356" stroke="#16A34A" stroke-width="0.6" stroke-linecap="round" stroke-linejoin="round"/>
<path d="M2.84127 9.69236C2.84127 9.46295 2.67536 9.27698 2.47069 9.27698C2.26601 9.27698 2.1001 9.46295 2.1001 9.69236H2.84127ZM2.47069 9.69236H2.1001V13.8462H2.47069H2.84127V9.69236H2.47069Z" fill="#16A34A"/>
</svg>
