<svg width="18" height="19" viewBox="0 0 18 19" fill="none" xmlns="http://www.w3.org/2000/svg">
<g clip-path="url(#clip0_3380_7582)">
<path d="M5 8.5L2 11V17L0.5 18C1.33333 17.1667 4.4 15.5 10 15.5" stroke="#16A34A" stroke-width="0.6" stroke-linecap="round" stroke-linejoin="round"/>
<path d="M5.0002 3.99995V3.69995C4.83451 3.69995 4.7002 3.83426 4.7002 3.99995H5.0002ZM9.5002 3.99995H9.8002C9.8002 3.83426 9.66589 3.69995 9.5002 3.69995V3.99995ZM9.2002 7.49995C9.2002 7.66564 9.33451 7.79995 9.5002 7.79995C9.66589 7.79995 9.8002 7.66564 9.8002 7.49995H9.2002ZM5.0002 16H5.3002V3.99995H5.0002H4.7002V16H5.0002ZM5.0002 3.99995V4.29995H9.5002V3.99995V3.69995H5.0002V3.99995ZM9.5002 3.99995H9.2002V7.49995H9.5002H9.8002V3.99995H9.5002Z" fill="#16A34A"/>
<path d="M9.5 5.5L13.5 7.5V13.5" stroke="#16A34A" stroke-width="0.6" stroke-linecap="round" stroke-linejoin="round"/>
<path d="M6 5.5H6.5" stroke="#16A34A" stroke-width="0.6" stroke-linejoin="round"/>
<path d="M6 6.5H6.5" stroke="#16A34A" stroke-width="0.6" stroke-linejoin="round"/>
<path d="M6 7.5H6.5" stroke="#16A34A" stroke-width="0.6" stroke-linejoin="round"/>
<path d="M3 12.5H3.5" stroke="#16A34A" stroke-width="0.6" stroke-linejoin="round"/>
<path d="M3 13.5H3.5" stroke="#16A34A" stroke-width="0.6" stroke-linejoin="round"/>
<path d="M4 13.5H4.5" stroke="#16A34A" stroke-width="0.6" stroke-linejoin="round"/>
<path d="M4 12.5H4.5" stroke="#16A34A" stroke-width="0.6" stroke-linejoin="round"/>
<path d="M7 5.5H7.5" stroke="#16A34A" stroke-width="0.6" stroke-linejoin="round"/>
<path d="M7 6.5H7.5" stroke="#16A34A" stroke-width="0.6" stroke-linejoin="round"/>
<path d="M7 7.5H7.5" stroke="#16A34A" stroke-width="0.6" stroke-linejoin="round"/>
<path d="M3 11.5H3.5" stroke="#16A34A" stroke-width="0.6" stroke-linejoin="round"/>
<path d="M8 5.5H8.5" stroke="#16A34A" stroke-width="0.6" stroke-linejoin="round"/>
<path d="M8 6.5H8.5" stroke="#16A34A" stroke-width="0.6" stroke-linejoin="round"/>
<path d="M8 7.5H8.5" stroke="#16A34A" stroke-width="0.6" stroke-linejoin="round"/>
<path d="M4 11.5H4.5" stroke="#16A34A" stroke-width="0.6" stroke-linejoin="round"/>
<path d="M13.5 9H16V17" stroke="#16A34A" stroke-width="0.6" stroke-linejoin="round"/>
<path d="M15 16.5L17 17.5" stroke="#16A34A" stroke-width="0.6" stroke-linecap="round" stroke-linejoin="round"/>
<path d="M6 4V2.5H8.5V4" stroke="#16A34A" stroke-width="0.6" stroke-linejoin="round"/>
<path d="M7.8002 0.999951C7.8002 0.834266 7.66589 0.699951 7.5002 0.699951C7.33451 0.699951 7.2002 0.834266 7.2002 0.999951H7.8002ZM7.5002 0.999951H7.2002V2.49995H7.5002H7.8002V0.999951H7.5002Z" fill="#16A34A"/>
<path d="M8.9998 14.2C10.491 14.2 11.6998 12.9912 11.6998 11.5C11.6998 10.0089 10.491 8.80005 8.9998 8.80005C7.50864 8.80005 6.2998 10.0089 6.2998 11.5C6.2998 12.9912 7.50864 14.2 8.9998 14.2Z" stroke="#16A34A" stroke-width="0.6" stroke-linejoin="round"/>
<path d="M10.5 13.5L11.5 14.5" stroke="#16A34A" stroke-width="0.6" stroke-linejoin="round"/>
<path d="M14 16.5L13 17.5L11 15L12 14L14 16.5Z" stroke="#16A34A" stroke-width="0.6" stroke-linejoin="round"/>
<path d="M14 10.5H14.5" stroke="#16A34A" stroke-width="0.6" stroke-linejoin="round"/>
<path d="M14 11.5H14.5" stroke="#16A34A" stroke-width="0.6" stroke-linejoin="round"/>
<path d="M14 12.5H14.5" stroke="#16A34A" stroke-width="0.6" stroke-linejoin="round"/>
<path d="M15 10.5H15.5" stroke="#16A34A" stroke-width="0.6" stroke-linejoin="round"/>
<path d="M15 11.5H15.5" stroke="#16A34A" stroke-width="0.6" stroke-linejoin="round"/>
<path d="M15 12.5H15.5" stroke="#16A34A" stroke-width="0.6" stroke-linejoin="round"/>
<path d="M10 10.5C10 10.3333 9.9 10 9.5 10C9.1 10 8.66667 10 8.5 10C8.33333 10 8 10.1 8 10.5C8 10.9 8.33333 11 8.5 11H9.5C9.66667 11 10 11.1 10 11.5C10 11.9 9.66667 12 9.5 12H8.5C8.33333 12 8 11.9 8 11.5" stroke="#16A34A" stroke-width="0.6" stroke-linejoin="round"/>
<path d="M9 12V12.5" stroke="#16A34A" stroke-width="0.6" stroke-linejoin="round"/>
<path d="M9 10V9.5" stroke="#16A34A" stroke-width="0.6" stroke-linejoin="round"/>
</g>
<defs>
<clipPath id="clip0_3380_7582">
<rect width="18" height="19" fill="white"/>
</clipPath>
</defs>
</svg>
