<svg width="19" height="17" viewBox="0 0 19 17" fill="none" xmlns="http://www.w3.org/2000/svg">
<g clip-path="url(#clip0_3380_7583)">
<path d="M4.24363 11.0742H14.207C15.3074 11.0742 16.2022 11.9609 16.2329 13.0664H2.21777C2.24845 11.9609 3.14328 11.0742 4.24363 11.0742Z" stroke="#16A34A" stroke-width="0.7"/>
<path d="M10.0977 1.44325L8.07547 0.530885C7.52034 0.280428 6.86959 0.532598 6.62198 1.09412L4.00028 7.03966C3.75267 7.60119 4.00197 8.25943 4.55711 8.50988L6.57936 9.42225C7.13449 9.67271 7.78524 9.42054 8.03284 8.85901L10.6545 2.91348C10.9022 2.35195 10.6529 1.69371 10.0977 1.44325Z" stroke="#16A34A" stroke-width="0.7"/>
<path d="M2.62224 14.418H15.5978C16.4422 14.418 17.13 15.0948 17.1605 15.9414H1.05957C1.09005 15.0948 1.77785 14.418 2.62224 14.418Z" stroke="#16A34A" stroke-width="0.7"/>
<path d="M17.5034 8.4491C18.1725 8.70107 18.4886 9.46816 18.2071 10.1215L18.1781 10.1845C17.8668 10.8116 17.1068 11.0577 16.4934 10.7299L9.60956 7.05182C9.26849 6.86957 9.12536 6.45112 9.28223 6.09466C9.43965 5.73691 9.84493 5.56467 10.2077 5.70131L17.5034 8.4491Z" stroke="#16A34A" stroke-width="0.7"/>
<path d="M4.20117 6.61584L8.1402 8.49085" stroke="#16A34A" stroke-width="0.7"/>
<path d="M6.51758 1.45959L10.4566 3.33459" stroke="#16A34A" stroke-width="0.7"/>
</g>
<defs>
<clipPath id="clip0_3380_7583">
<rect width="19" height="17" fill="white"/>
</clipPath>
</defs>
</svg>
