<svg width="15" height="18" viewBox="0 0 15 18" fill="none" xmlns="http://www.w3.org/2000/svg">
<path d="M2.08333 9C1.80556 9 1.25 8.91 1.25 8.55C1.25 8.19 1.25 7.5 1.25 7.2C1.25 6.9 1.41667 6.3 2.08333 6.3C2.75 6.3 2.91667 6.3 2.91667 6.3L3.33333 4.95L2.91667 4.5C2.77777 4.35 2.58333 3.96 2.91667 3.6C3.25 3.24 3.61111 2.85 3.75 2.7C3.88889 2.55 4.25 2.34 4.58333 2.7C4.91667 3.06 5 3.15002 5 3.15002L6.25 2.7V1.80002C6.25 1.50003 6.33333 0.900024 6.66667 0.900024C7 0.900024 7.91667 0.900024 8.33333 0.900024C8.47225 0.900024 8.75 1.08002 8.75 1.80002C8.75 2.52002 8.75 2.70002 8.75 2.70002L10 3.15002L10.4167 2.70002C10.5556 2.55002 10.9167 2.34002 11.25 2.70002C11.5833 3.06002 11.9444 3.45002 12.0833 3.60002C12.2222 3.75003 12.4167 4.14002 12.0833 4.50002C11.75 4.86002 11.6667 4.95002 11.6667 4.95002L12.0833 6.30002H13.3333C13.4722 6.30002 13.75 6.39002 13.75 6.75002C13.75 7.11002 13.75 8.10002 13.75 8.55002C13.75 8.70003 13.6667 9.00002 13.3333 9.00002" stroke="#16A34A" stroke-width="0.6" stroke-linejoin="round"/>
<path d="M4.5835 7.65C4.5835 6.75 5.00016 4.5 7.50016 4.5C8.3335 4.5 10.0835 5.13 10.4168 7.65" stroke="#16A34A" stroke-width="0.6" stroke-linejoin="round"/>
<path d="M3.75 10.9799C4.30228 10.9799 4.75 10.4964 4.75 9.89995C4.75 9.30348 4.30228 8.81995 3.75 8.81995C3.19772 8.81995 2.75 9.30348 2.75 9.89995C2.75 10.4964 3.19772 10.9799 3.75 10.9799Z" stroke="#16A34A" stroke-width="0.6"/>
<path d="M7.0835 9.18002C7.63578 9.18002 8.0835 8.69649 8.0835 8.10002C8.0835 7.50355 7.63578 7.02002 7.0835 7.02002C6.53121 7.02002 6.0835 7.50355 6.0835 8.10002C6.0835 8.69649 6.53121 9.18002 7.0835 9.18002Z" stroke="#16A34A" stroke-width="0.6"/>
<path d="M11.25 10.9799C11.8023 10.9799 12.25 10.4964 12.25 9.89995C12.25 9.30348 11.8023 8.81995 11.25 8.81995C10.6977 8.81995 10.25 9.30348 10.25 9.89995C10.25 10.4964 10.6977 10.9799 11.25 10.9799Z" stroke="#16A34A" stroke-width="0.6"/>
<path d="M6.25016 13.05V17.1H5.41683C5.13905 17.1 4.5835 16.83 4.5835 15.75C4.5835 14.67 4.5835 13.5 4.5835 13.05C4.5835 12.45 4.91683 11.25 6.25016 11.25C7.5835 11.25 8.47241 11.25 8.75016 11.25C9.30575 11.25 10.4168 11.61 10.4168 13.05C10.4168 14.49 10.4168 15.45 10.4168 15.75C10.4168 16.05 10.1668 16.65 9.16683 16.65C8.16683 16.65 8.47241 16.65 8.75016 16.65V13.05" stroke="#16A34A" stroke-width="0.6" stroke-linecap="round" stroke-linejoin="round"/>
<path d="M7.5 16.65H8.33333" stroke="#16A34A" stroke-width="0.6" stroke-linecap="round" stroke-linejoin="round"/>
<path d="M10.4165 12.15H12.4998C13.0554 12.15 14.1665 12.51 14.1665 13.95C14.1665 15.39 14.1665 15.75 14.1665 15.75C14.1665 16.05 13.9165 16.65 12.9165 16.65C11.9165 16.65 10.8332 16.65 10.4165 16.65" stroke="#16A34A" stroke-width="0.6" stroke-linejoin="round"/>
<path d="M12.9165 13.95V16.65" stroke="#16A34A" stroke-width="0.6" stroke-linejoin="round"/>
<path d="M4.16683 16.65H2.0835C1.80572 16.65 0.833496 16.65 0.833496 15.3V13.95C0.833496 13.35 1.16683 12.15 2.50016 12.15H4.5835" stroke="#16A34A" stroke-width="0.6" stroke-linecap="round" stroke-linejoin="round"/>
<path d="M2.3335 13.9501C2.3335 13.8009 2.22157 13.6801 2.0835 13.6801C1.94542 13.6801 1.8335 13.8009 1.8335 13.9501H2.3335ZM2.0835 13.9501H1.8335V16.6501H2.0835H2.3335V13.9501H2.0835Z" fill="#16A34A"/>
</svg>
